# xmcd
#
# Track frame offsets:
# 182
# 17887
# 33472
# 51702
# 72662
# 94965
# 109737
# 130632
# 145122
# 163955
# 175852
# 186552
# 197625
# 209877
#
# Disc length: 2979 seconds
#
#
# Revision: 3
# Processed by: cddbd v1.5.1PL0 Copyright (c) Steve Scherf et al.
# Submitted via: FreeRIP 2.90 
#
DISCID=e30ba10e
DTITLE=101 Strings - A Tribute To Nat King Cole
DYEAR=1900
DGENRE=Easy Listening
TTITLE0=Mona Lisa
TTITLE1=Unforgettable
TTITLE2=Too Young
TTITLE3=Blues For Nat
TTITLE4=Medley - Tribute To Nat
TTITLE5=Nature Boy
TTITLE6=Sweet Hurtin' Blues
TTITLE7=Ramblin Rose
TTITLE8=Down By The Riverside
TTITLE9=As Time Goes By
TTITLE10=Maria, Maria
TTITLE11=So Rare
TTITLE12=Pizzicato For The King
TTITLE13=Vaya Con Dios
EXTD=
EXTT0=
EXTT1=
EXTT2=
EXTT3=
EXTT4=
EXTT5=
EXTT6=
EXTT7=
EXTT8=
EXTT9=
EXTT10=
EXTT11=
EXTT12=
EXTT13=
PLAYORDER=
